<svg width="28" height="22" viewBox="0 0 28 22" fill="none" xmlns="http://www.w3.org/2000/svg">
<path d="M23.6909 1.77339C21.9176 0.946728 19.9976 0.346728 17.9976 6.13309e-05C17.98 -0.000499473 17.9626 0.0027913 17.9464 0.00970234C17.9303 0.0166134 17.9159 0.0269768 17.9042 0.0400616C17.6642 0.480062 17.3842 1.05339 17.1976 1.49339C15.0762 1.17339 12.9189 1.17339 10.7976 1.49339C10.6109 1.04006 10.3309 0.480062 10.0776 0.0400616C10.0642 0.0133949 10.0242 6.13309e-05 9.98422 6.13309e-05C7.98422 0.346728 6.07755 0.946728 4.29089 1.77339C4.27755 1.77339 4.26422 1.78673 4.25089 1.80006C0.624219 7.22673 -0.375781 12.5067 0.117552 17.7334C0.117552 17.7601 0.130885 17.7867 0.157552 17.8001C2.55755 19.5601 4.86422 20.6267 7.14422 21.3334C7.18422 21.3467 7.22422 21.3334 7.23755 21.3067C7.77089 20.5734 8.25089 19.8001 8.66422 18.9867C8.69089 18.9334 8.66422 18.8801 8.61089 18.8667C7.85089 18.5734 7.13089 18.2267 6.42422 17.8267C6.37089 17.8001 6.37089 17.7201 6.41089 17.6801C6.55755 17.5734 6.70422 17.4534 6.85089 17.3467C6.87755 17.3201 6.91755 17.3201 6.94422 17.3334C11.5309 19.4267 16.4776 19.4267 21.0109 17.3334C21.0376 17.3201 21.0776 17.3201 21.1042 17.3467C21.2509 17.4667 21.3976 17.5734 21.5442 17.6934C21.5976 17.7334 21.5976 17.8134 21.5309 17.8401C20.8376 18.2534 20.1042 18.5867 19.3442 18.8801C19.2909 18.8934 19.2776 18.9601 19.2909 19.0001C19.7176 19.8134 20.1976 20.5867 20.7176 21.3201C20.7576 21.3334 20.7976 21.3467 20.8376 21.3334C23.1309 20.6267 25.4376 19.5601 27.8376 17.8001C27.8642 17.7867 27.8776 17.7601 27.8776 17.7334C28.4642 11.6934 26.9042 6.45339 23.7442 1.80006C23.7309 1.78673 23.7176 1.77339 23.6909 1.77339ZM9.35755 14.5467C7.98422 14.5467 6.83755 13.2801 6.83755 11.7201C6.83755 10.1601 7.95755 8.89339 9.35755 8.89339C10.7709 8.89339 11.8909 10.1734 11.8776 11.7201C11.8776 13.2801 10.7576 14.5467 9.35755 14.5467ZM18.6509 14.5467C17.2776 14.5467 16.1309 13.2801 16.1309 11.7201C16.1309 10.1601 17.2509 8.89339 18.6509 8.89339C20.0642 8.89339 21.1842 10.1734 21.1709 11.7201C21.1709 13.2801 20.0642 14.5467 18.6509 14.5467Z" fill="black"/>
</svg>
