<svg width="491" height="430" viewBox="0 0 491 430" fill="none" xmlns="http://www.w3.org/2000/svg">
<g filter="url(#filter0_i_10_8)">
<path d="M65.2254 314.694C40.0316 279.968 17.5391 243.133 6.66039 203.525C-3.80777 163.848 -2.66209 121.397 16.8536 90.1645C36.2369 59.1609 74.1226 39.1454 113.479 23.6481C152.557 7.99027 193.239 -3.3787 234.399 1.12258C275.427 5.85321 316.934 26.4541 356.31 50.1049C395.553 73.985 432.109 100.594 456.719 133.76C481.608 167.087 494.143 207.039 489.672 241.76C485.479 276.642 464.413 306.063 443.718 333.557C422.745 360.891 402.13 385.68 373.659 402.876C345.322 419.843 309.394 428.758 270.406 429.486C231.273 429.824 189.079 421.975 154.034 401.742C118.579 381.577 90.5516 349.191 65.2254 314.694Z" fill="#415998"/>
</g>
<defs>
<filter id="filter0_i_10_8" x="0.105164" y="0.129395" width="490.459" height="433.367" filterUnits="userSpaceOnUse" color-interpolation-filters="sRGB">
<feFlood flood-opacity="0" result="BackgroundImageFix"/>
<feBlend mode="normal" in="SourceGraphic" in2="BackgroundImageFix" result="shape"/>
<feColorMatrix in="SourceAlpha" type="matrix" values="0 0 0 0 0 0 0 0 0 0 0 0 0 0 0 0 0 0 127 0" result="hardAlpha"/>
<feOffset dy="4"/>
<feGaussianBlur stdDeviation="2"/>
<feComposite in2="hardAlpha" operator="arithmetic" k2="-1" k3="1"/>
<feColorMatrix type="matrix" values="0 0 0 0 0 0 0 0 0 0 0 0 0 0 0 0 0 0 0.25 0"/>
<feBlend mode="normal" in2="shape" result="effect1_innerShadow_10_8"/>
</filter>
</defs>
</svg>
