<svg width="454" height="457" viewBox="0 0 454 457" fill="none" xmlns="http://www.w3.org/2000/svg">
<g filter="url(#filter0_i_10_9)">
<path d="M385.018 46.2506C419.963 82.996 431.611 139.836 442.095 196.964C452.578 254.092 462.188 311.793 442.968 360.883C423.748 409.972 375.699 450.449 325.319 456.191C274.94 462.219 221.94 433.225 165.445 413.417C108.659 393.609 48.3788 382.987 20.1314 347.677C-7.82476 312.367 -4.03903 252.656 15.472 204.428C34.6919 155.913 69.6371 119.167 108.368 83.283C147.099 47.1118 189.616 11.8018 240.286 2.6155C291.248 -6.85791 349.781 9.79234 385.018 46.2506Z" fill="#415998"/>
</g>
<defs>
<filter id="filter0_i_10_9" x="0" y="0" width="454" height="461" filterUnits="userSpaceOnUse" color-interpolation-filters="sRGB">
<feFlood flood-opacity="0" result="BackgroundImageFix"/>
<feBlend mode="normal" in="SourceGraphic" in2="BackgroundImageFix" result="shape"/>
<feColorMatrix in="SourceAlpha" type="matrix" values="0 0 0 0 0 0 0 0 0 0 0 0 0 0 0 0 0 0 127 0" result="hardAlpha"/>
<feOffset dy="4"/>
<feGaussianBlur stdDeviation="2"/>
<feComposite in2="hardAlpha" operator="arithmetic" k2="-1" k3="1"/>
<feColorMatrix type="matrix" values="0 0 0 0 0 0 0 0 0 0 0 0 0 0 0 0 0 0 0.25 0"/>
<feBlend mode="normal" in2="shape" result="effect1_innerShadow_10_9"/>
</filter>
</defs>
</svg>
