<svg width="682" height="667" viewBox="0 0 682 667" fill="none" xmlns="http://www.w3.org/2000/svg">
<g filter="url(#filter0_d_39_118)">
<path d="M575.59 66.694C627.469 119.681 644.762 201.646 660.326 284.025C675.889 366.403 690.156 449.61 661.623 520.398C633.089 591.185 561.756 649.554 486.963 657.833C412.171 666.527 333.488 624.716 249.617 596.153C165.314 567.589 75.8222 552.273 33.8867 501.355C-7.6165 450.438 -1.99627 364.333 26.9695 294.788C55.503 224.828 107.382 171.841 164.881 120.095C222.38 67.9359 285.5 17.0184 360.724 3.77159C436.381 -9.8892 523.279 14.1207 575.59 66.694Z" fill="black"/>
</g>
<defs>
<filter id="filter0_d_39_118" x="0" y="0" width="682" height="667" filterUnits="userSpaceOnUse" color-interpolation-filters="sRGB">
<feFlood flood-opacity="0" result="BackgroundImageFix"/>
<feColorMatrix in="SourceAlpha" type="matrix" values="0 0 0 0 0 0 0 0 0 0 0 0 0 0 0 0 0 0 127 0" result="hardAlpha"/>
<feOffset dy="4"/>
<feGaussianBlur stdDeviation="2"/>
<feComposite in2="hardAlpha" operator="out"/>
<feColorMatrix type="matrix" values="0 0 0 0 0 0 0 0 0 0 0 0 0 0 0 0 0 0 0.25 0"/>
<feBlend mode="normal" in2="BackgroundImageFix" result="effect1_dropShadow_39_118"/>
<feBlend mode="normal" in="SourceGraphic" in2="effect1_dropShadow_39_118" result="shape"/>
</filter>
</defs>
</svg>
