<svg width="343" height="312" viewBox="0 0 343 312" fill="none" xmlns="http://www.w3.org/2000/svg">
<path d="M342.875 277.333C342.875 282.244 341.047 286.364 337.391 289.692C333.748 293.008 329.228 294.667 323.833 294.667H304.792V295.1C304.792 300.011 303.046 304.056 299.555 307.233C296.064 310.411 291.621 312 286.226 312H228.625C223.23 312 218.704 310.336 215.048 307.008C211.405 303.692 209.583 299.578 209.583 294.667V277.333H76.2917C55.3458 277.333 37.4149 270.544 22.499 256.967C7.58299 243.389 0.125 227.067 0.125 208C0.125 188.933 7.58299 172.611 22.499 159.033C37.4149 145.456 55.3458 138.667 76.2917 138.667L266.708 138.667C277.181 138.667 286.15 135.269 293.614 128.475C301.066 121.692 304.792 113.533 304.792 104C304.792 94.4667 301.066 86.3027 293.614 79.508C286.15 72.7249 277.181 69.3333 266.708 69.3333L133.417 69.3333L133.417 86.6667C133.417 91.5778 131.589 95.6915 127.933 99.008C124.289 102.336 119.77 104 114.375 104H56.774C51.3788 104 46.9358 102.411 43.4448 99.2333C39.9538 96.0556 38.2083 92.0111 38.2083 87.1V86.6667H19.1667C13.7715 86.6667 9.24596 85.0027 5.58996 81.6747C1.94665 78.3582 0.125 74.2444 0.125 69.3333L0.125 34.6667C0.125 29.7556 1.94665 25.6418 5.58996 22.3253C9.24596 18.9973 13.7715 17.3333 19.1667 17.3333H38.2083V16.9C38.2083 11.9889 39.9538 7.94443 43.4448 4.76666C46.9358 1.58887 51.3788 0 56.774 0H114.375C119.77 0 124.289 1.664 127.933 4.992C131.589 8.30844 133.417 12.4222 133.417 17.3333V34.6667H266.708C287.654 34.6667 305.585 41.4555 320.501 55.0333C335.417 68.6111 342.875 84.9333 342.875 104C342.875 123.067 335.417 139.389 320.501 152.967C305.585 166.544 287.654 173.333 266.708 173.333L76.2917 173.333C65.8187 173.333 56.8565 176.725 49.4048 183.508C41.9405 190.303 38.2083 198.467 38.2083 208C38.2083 217.533 41.9405 225.692 49.4048 232.475C56.8565 239.269 65.8187 242.667 76.2917 242.667H209.583V225.333C209.583 220.422 211.405 216.303 215.048 212.975C218.704 209.658 223.23 208 228.625 208H286.226C291.621 208 296.064 209.589 299.555 212.767C303.046 215.944 304.792 219.989 304.792 224.9V225.333H323.833C329.228 225.333 333.748 226.992 337.391 230.308C341.047 233.636 342.875 237.756 342.875 242.667V277.333Z" fill="black"/>
</svg>
