<svg width="36" height="28" viewBox="0 0 36 28" fill="none" xmlns="http://www.w3.org/2000/svg">
<path d="M30.4605 2.32697C28.1805 1.24226 25.7118 0.454961 23.1403 8.04758e-05C23.1178 -0.000655387 23.0954 0.00366263 23.0746 0.012731C23.0539 0.0217994 23.0354 0.0353978 23.0203 0.0525671C22.7118 0.629916 22.3518 1.38222 22.1117 1.95957C19.3842 1.53968 16.6105 1.53968 13.8829 1.95957C13.6429 1.36472 13.2829 0.629916 12.9572 0.0525671C12.9401 0.0175763 12.8886 8.04758e-05 12.8372 8.04758e-05C10.2657 0.454961 7.81421 1.24226 5.517 2.32697C5.49986 2.32697 5.48272 2.34447 5.46557 2.36196C0.802589 9.4826 -0.48316 16.4108 0.151143 23.269C0.151143 23.304 0.168286 23.339 0.202573 23.3565C3.28837 25.6659 6.25417 27.0655 9.18568 27.9928C9.23711 28.0102 9.28854 27.9928 9.30568 27.9578C9.99141 26.9955 10.6086 25.9808 11.14 24.9136C11.1743 24.8436 11.14 24.7736 11.0714 24.7561C10.0943 24.3712 9.16853 23.9163 8.25994 23.3915C8.19136 23.3565 8.19136 23.2515 8.24279 23.199C8.43137 23.059 8.61995 22.9016 8.80852 22.7616C8.84281 22.7266 8.89424 22.7266 8.92853 22.7441C14.8258 25.4909 21.186 25.4909 27.0147 22.7441C27.049 22.7266 27.1005 22.7266 27.1347 22.7616C27.3233 22.9191 27.5119 23.059 27.7005 23.2165C27.769 23.269 27.769 23.374 27.6833 23.409C26.7919 23.9513 25.849 24.3887 24.8718 24.7736C24.8032 24.7911 24.7861 24.8786 24.8032 24.9311C25.3518 25.9983 25.969 27.013 26.6376 27.9753C26.689 27.9928 26.7404 28.0102 26.7919 27.9928C29.7405 27.0655 32.7063 25.6659 35.7921 23.3565C35.8264 23.339 35.8435 23.304 35.8435 23.269C36.5979 15.3436 34.5921 8.46786 30.5291 2.36196C30.512 2.34447 30.4948 2.32697 30.4605 2.32697ZM12.0315 19.0876C10.2657 19.0876 8.79138 17.4255 8.79138 15.3786C8.79138 13.3316 10.2314 11.6695 12.0315 11.6695C13.8487 11.6695 15.2887 13.3491 15.2716 15.3786C15.2716 17.4255 13.8315 19.0876 12.0315 19.0876ZM23.9804 19.0876C22.2146 19.0876 20.7403 17.4255 20.7403 15.3786C20.7403 13.3316 22.1803 11.6695 23.9804 11.6695C25.7976 11.6695 27.2376 13.3491 27.2205 15.3786C27.2205 17.4255 25.7976 19.0876 23.9804 19.0876Z" fill="white"/>
</svg>
