<svg width="36" height="28" viewBox="0 0 36 28" fill="none" xmlns="http://www.w3.org/2000/svg">
<path d="M14.4 20L23.742 14L14.4 8V20ZM35.208 4.34C35.442 5.28 35.604 6.54 35.712 8.14C35.838 9.74 35.892 11.12 35.892 12.32L36 14C36 18.38 35.712 21.6 35.208 23.66C34.758 25.46 33.714 26.62 32.094 27.12C31.248 27.38 29.7 27.56 27.324 27.68C24.984 27.82 22.842 27.88 20.862 27.88L18 28C10.458 28 5.76 27.68 3.906 27.12C2.286 26.62 1.242 25.46 0.792 23.66C0.558 22.72 0.396 21.46 0.288 19.86C0.162 18.26 0.108 16.88 0.108 15.68L0 14C0 9.62 0.288 6.4 0.792 4.34C1.242 2.54 2.286 1.38 3.906 0.88C4.752 0.62 6.3 0.44 8.676 0.32C11.016 0.18 13.158 0.12 15.138 0.12L18 0C25.542 0 30.24 0.32 32.094 0.88C33.714 1.38 34.758 2.54 35.208 4.34Z" fill="white"/>
</svg>
